88      a8P          db         88888888ba   88  888b      88         db         
88    ,88'          d88b        88      "8b  ""  8888b     88        d88b        
88  ,88"           d8'`8b       88      ,8P      88 `8b    88       d8'`8b       
88,d88'           d8'  `8b      88aaaaaa8P'  88  88  `8b   88      d8'  `8b      
8888"88,         d8YaaaaY8b     88""""88'    88  88   `8b  88     d8YaaaaY8b     
88P   Y8b       d8""""""""8b    88    `8b    88  88    `8b 88    d8""""""""8b    
88     "88,    d8'        `8b   88     `8b   88  88     `8888   d8'        `8b   
88       Y8b  d8'          `8b  88      `8b  88  88      `888  d8'          `8b  
-------------------------------------------------------------------------------
                    -------------------------------------
           [ In.the.Realm.of.the.Senses.1976.DVDRip.XviD-KARiNA ]            
                    -------------------------------------

[Synopsis]==================================                                                                

 In the Realm of the Senses | Japan / France | 1976 | Directed by Nagisa Oshima
                                  
Based upon a true incident in 1930s Japan, Nagisa Oshima's controversial film effectively skirts the borderline between pornography and art -- making Bernardo Bertolucci's Last Tango in Paris of four years earlier look like children's programming in comparison. The story concerns servant and former prostitute Sada Abe (Eiko Matsuda) who becomes sexually obsessed with her employer Kizicho (Tatsuya Fuji), a businessman, after seeing him making love to his wife. After making love to Sada, Kizicho becomes obsessed with her as well. As their love-making becomes more and more intense, they find themselves unable to separate themselves from each other, until every waking hour is spent in more and more dangerous sexual acts with Sada becoming more and more of the aggressor. Finally, for the ultimate in eroticism, Kizicho agrees to be strangled during sexual ecstasy for the ultimate in orgasmic fulfillment.

[ IMdB: http://www.imdb.com/title/tt0074102/ | Rating: 6.6 / 10 (4,595 votes) ]
                                     
[General]===================================                                                                 

Complete name                    : In.the.Realm.of.the.Senses.1976.DVDRip.XviD-KARiNA
Format                           : AVI
File size                        : 1.37 GiB
Duration                         : 1h 42mn
Overall bit rate                 : 1 911 Kbps
Writing application              : VirtualDubMod 1.5.4.1 (build 2178/release)
Writing library                  : VirtualDubMod build 2178/release
Source                           : Criterion NTSC DVD9

[Video]=====================================
                                 
Format                           : MPEG-4 Visual
Codec ID                         : XVID
Bit rate                         : 1 792 Kbps
Width                            : 720 pixels
Height                           : 432 pixels
Display aspect ratio             : 1.667
Frame rate                       : 23.976 fps
Resolution                       : 24 bits
Colorimetry                      : 4:2:0
Scan type                        : Progressive
Bits/(Pixel*Frame)               : 0.240
Stream size                      : 1.28 GiB (94%)
Writing library                  : XviD 1.2.1 (UTC 2008-12-04)

[Audio]=====================================                              

Format                           : MPEG Audio
Format version                   : Version 1
Format profile                   : Layer 3
Bit rate                         : 106 Kbps
Nominal bit rate                 : 160 Kbps
Channel(s)                       : 2 channels
Sampling rate                    : 48.0 KHz
Resolution                       : 16 bits
Stream size                      : 77.7 MiB (6%)
Language                         : Japanese

[Subtitles]=================================

Format                           : SRT
Language                         : English

[KARiNA]===================================